# xmcd
#
# Track frame offsets:
#	150
#	14165
#	27022
#	39975
#	58247
#	75065
#	88655
#	105060
#	124300
#	143422
#	157637
#	180484
#	197332
#	212080
#	228262
#
# Disc length: 3232 seconds
#
# Revision: 1
# Processed by: cddbd v1.5.1PL2 Copyright (c) Steve Scherf et al.
# Submitted via: audiograbber 1.83.01
#
DISCID=a60c9e0f
DTITLE=Various Artist - SC8252
DYEAR=1900
DGENRE=Country
TTITLE0=White, Lari - Lay Around and Love On You
TTITLE1=Greenwood, Lee - Before I'm Ever Over You
TTITLE2=Clayton, Kimber - Bless His Heart
TTITLE3=Mattea, Kathy - Seeds
TTITLE4=Cartwright - Family Tree
TTITLE5=Rogers, Kenny - I'll Be There For You
TTITLE6=Morgan, Lorrie - Behind His Last Goodbye
TTITLE7=Chesnutt, Mark - Half Of Everything
TTITLE8=Stuart, Marty - High On A Mountain Top
TTITLE9=Brown, Marty - Cryin', Lovin', Leavin'
TTITLE10=Carpenter, Mary Chapin - Come On Come On
TTITLE11=Haggard, Merla - I Am An Island
TTITLE12=Reid, Mike - Keep On Walkin'
TTITLE13=Overstreet, Paul - Seein' My Father In Me
TTITLE14=Collie, Mark - Shame Shame Shame Shame
EXTD=
EXTT0=
EXTT1=
EXTT2=
EXTT3=
EXTT4=
EXTT5=
EXTT6=
EXTT7=
EXTT8=
EXTT9=
EXTT10=
EXTT11=
EXTT12=
EXTT13=
EXTT14=
PLAYORDER=
